<svg xmlns="http://www.w3.org/2000/svg" width="80" height="80" viewBox="0 0 80 80" fill="none">
  <!-- Morphingbird: minimalistic bird standing hands-on-hips, short tail swept
       left, arms as detached '<' '>' chevrons flanking the body like a tag. -->
  <g fill="#5FB4F0">
    <ellipse cx="40" cy="46" rx="15" ry="17"/>
    <circle cx="40" cy="25" r="11"/>
    <polygon points="50,23 59,26 50,29"/>
    <polygon points="30,53 14,60.5 17,63.5 31,58"/>
    <rect x="34.4" y="62" width="2.6" height="9" rx="1.3"/>
    <rect x="43" y="62" width="2.6" height="9" rx="1.3"/>
    <rect x="31.14257" y="69.007767" width="9" height="2.5999999" rx="1.3"/>
    <rect x="41.14257" y="69.007767" width="9" height="2.5999999" rx="1.3"/>
  </g>
  <g stroke="#5FB4F0" stroke-width="4.4" fill="none" stroke-linecap="round" stroke-linejoin="round">
    <path d="m 22.820616,36.606426 -8,8.5 8,8.5"/>
    <path d="m 56.965194,35.42838 8,8.5 -8,8.5"/>
  </g>
  <rect x="41.5" y="22.6" width="6.2" height="2.4" rx="1.2" fill="#FFFFFF"/>
</svg>
